<?xml version="1.0" standalone="no"?>
<svg xmlns="http://www.w3.org/2000/svg" viewBox="0 0 132.24 36" width="132.24" height="36"><g fill="#f74ecd" color="#f74ecd" transform="translate(0 3.9999999999999982) scale(0.2800001)"><svg width="100.0" height="100.0" x="0.0" y="0.0" viewBox="0 0 100 100"><g><path d="M59.640625,41.9389648h4.5839844c0.4970703,0,0.9003906,0.402832,0.9003906,0.8999023   s-0.4033203,0.8999023-0.9003906,0.8999023H59.640625c-0.4970703,0-0.9003906-0.402832-0.9003906-0.8999023   S59.1435547,41.9389648,59.640625,41.9389648z M42.5,50c0-4.1352196,3.3641624-7.499382,7.5-7.499382S57.5,45.8647804,57.5,50   s-3.3641624,7.499382-7.5,7.499382S42.5,54.1352196,42.5,50z"></path><path d="M86.5996094,19.1689453H13.4003906v61.6621094h33.1064453V63.5039063H29.3632813   c-0.4970703,0-0.9003906-0.402832-0.9003906-0.8999023V37.3959961c0-0.4970703,0.4033203-0.8999023,0.9003906-0.8999023h14.0986328   v-4.0878906v-4.987793c0-0.4970703,0.4033203-0.8999023,0.9003906-0.8999023h11.2753906   c0.4970703,0,0.9003906,0.402832,0.9003906,0.8999023v4.987793v4.0878906h14.0986328   c0.4970703,0,0.9003906,0.402832,0.9003906,0.8999023v25.2080078c0,0.4970703-0.4033203,0.8999023-0.9003906,0.8999023H53.4931641   v17.3271484h33.1064453V19.1689453z"></path><rect x="45.2626953" y="33.3081055" width="9.4746094" height="3.1879883"></rect><rect x="45.2626953" y="28.3203125" width="9.4746094" height="3.1879883"></rect></g></svg></g><path fill="#f5f5f5" fill-rule="nonzero" d="M6.58 17.74L6.58 17.74Q7.78 17.74 8.70 17.09Q9.62 16.44 9.62 15.13Q9.62 13.82 8.63 13.13Q7.63 12.43 5.80 11.92Q3.96 11.40 3.13 11.02Q2.30 10.63 1.56 10.01L1.56 10.01Q0.07 8.76 0.07 6.14L0.07 6.14Q0.07 4.01 1.60 2.47Q3.12 0.94 5.76 0.94L5.76 0.94Q7.03 0.94 8.41 1.31Q9.79 1.68 10.13 1.68Q10.46 1.68 10.73 1.20L10.73 1.20L10.99 1.20L11.16 6.05L10.78 6.05Q9.62 3.96 8.36 2.70Q7.10 1.44 5.63 1.44Q4.15 1.44 3.34 2.12Q2.52 2.81 2.52 3.95Q2.52 5.09 3.49 5.70Q4.46 6.31 5.88 6.70Q7.30 7.08 7.74 7.22Q8.18 7.37 8.84 7.62Q9.50 7.87 9.92 8.15Q10.34 8.42 10.81 8.84Q11.28 9.26 11.54 9.77L11.54 9.77Q12.19 10.92 12.19 12.50L12.19 12.50Q12.19 15.10 10.57 16.67Q8.95 18.24 6.31 18.24L6.31 18.24Q4.94 18.24 3.18 17.88Q1.42 17.52 1.22 17.52L1.22 17.52Q0.89 17.52 0.58 18.24L0.58 18.24L0.24 18.24L0 12.53L0.41 12.53Q1.46 14.62 3.11 16.18Q4.75 17.74 6.58 17.74ZM14.62 14.57L14.62 14.57L14.62 7.01L13.30 7.01L13.30 6.58L14.62 6.58L14.62 3.48L19.08 2.38L19.08 6.58L22.20 6.58L22.20 7.01L19.08 7.01L19.08 15.10Q19.08 16.22 19.31 16.75Q19.54 17.28 20.26 17.28Q20.98 17.28 21.52 16.56Q22.06 15.84 22.22 14.59L22.22 14.59L22.63 14.64Q22.44 16.30 21.58 17.27Q20.71 18.24 18.72 18.24Q16.73 18.24 15.67 17.45Q14.62 16.66 14.62 14.57ZM36.79 17.57L36.79 18L31.32 18L31.06 16.25Q30.67 17.21 29.92 17.72Q29.16 18.24 27.67 18.24L27.67 18.24Q23.95 18.24 23.95 14.23L23.95 14.23L23.95 7.01L22.61 7.01L22.61 6.58L28.42 6.58L28.42 14.81Q28.42 16.25 28.62 16.70Q28.82 17.16 29.44 17.16Q30.05 17.16 30.53 16.42Q31.01 15.67 31.01 14.35L31.01 14.35L31.01 7.01L29.90 7.01L29.90 6.58L35.47 6.58L35.47 17.57L36.79 17.57ZM42.14 13.03Q42.14 15.55 42.41 16.38Q42.67 17.21 43.38 17.21Q44.09 17.21 44.60 16.58Q45.12 15.96 45.12 14.74L45.12 14.74L45.12 9.50Q45.12 8.47 44.71 7.75Q44.30 7.03 43.51 7.03Q42.72 7.03 42.43 8.09Q42.14 9.14 42.14 11.78L42.14 11.78L42.14 13.03ZM50.76 18L45.43 18L45.17 16.32Q44.35 18.24 41.86 18.24L41.86 18.24Q39.79 18.24 38.65 16.75Q37.51 15.26 37.51 12.31L37.51 12.31Q37.51 6.34 42.26 6.34L42.26 6.34Q44.38 6.34 45.05 7.51L45.05 7.51L45.05 0.43L43.58 0.43L43.58 0L49.58 0L49.58 17.57L50.76 17.57L50.76 18ZM54.91 4.92Q53.64 4.92 53.10 4.27Q52.56 3.62 52.56 2.66Q52.56 1.70 53.15 1.08Q53.74 0.46 54.94 0.46Q56.14 0.46 56.76 1.02Q57.38 1.58 57.38 2.63Q57.38 3.67 56.78 4.30Q56.18 4.92 54.91 4.92ZM51.29 7.01L51.29 6.58L57.17 6.58L57.17 17.57L58.51 17.57L58.51 18L51.38 18L51.38 17.57L52.70 17.57L52.70 7.01L51.29 7.01ZM66.74 13.27L66.74 13.27L66.74 11.23Q66.74 8.90 66.49 7.84Q66.24 6.77 65.33 6.77L65.33 6.77Q64.80 6.77 64.48 7.07Q64.15 7.37 64.01 8.06L64.01 8.06Q63.79 9.14 63.79 11.35L63.79 11.35L63.79 13.22Q63.79 15.84 63.95 16.37Q64.10 16.90 64.27 17.23L64.27 17.23Q64.54 17.81 65.30 17.81L65.30 17.81Q66.24 17.81 66.53 16.73L66.53 16.73Q66.74 15.96 66.74 13.27ZM65.26 18.24Q62.26 18.24 60.72 16.70Q59.18 15.17 59.18 12.30Q59.18 9.43 60.83 7.88Q62.47 6.34 65.45 6.34Q68.42 6.34 69.89 7.76Q71.35 9.19 71.35 12.12L71.35 12.12Q71.35 18.24 65.26 18.24L65.26 18.24ZM86.06 17.57L86.06 18L80.59 18L80.33 16.25Q79.94 17.21 79.19 17.72Q78.43 18.24 76.94 18.24L76.94 18.24Q73.22 18.24 73.22 14.23L73.22 14.23L73.22 7.01L71.88 7.01L71.88 6.58L77.69 6.58L77.69 14.81Q77.69 16.25 77.89 16.70Q78.10 17.16 78.71 17.16Q79.32 17.16 79.80 16.42Q80.28 15.67 80.28 14.35L80.28 14.35L80.28 7.01L79.18 7.01L79.18 6.58L84.74 6.58L84.74 17.57L86.06 17.57ZM87.38 18.24L87.10 18.24L87.10 13.94L87.38 13.94Q88.01 16.03 89.06 16.87Q90.12 17.71 91.70 17.71L91.70 17.71Q94.15 17.71 94.15 16.15L94.15 16.15Q94.15 15.48 93.55 15.14L93.55 15.14Q92.62 14.62 91.15 14.33L91.15 14.33Q89.52 13.90 88.42 13.18L88.42 13.18Q87.10 12.31 87.10 10.44Q87.10 8.57 88.25 7.45Q89.40 6.34 91.32 6.34L91.32 6.34Q92.50 6.34 93.74 6.89L93.74 6.89Q94.20 7.08 94.44 7.08Q94.68 7.08 94.85 6.91Q95.02 6.74 95.26 6.29L95.26 6.29L95.52 6.29L95.52 9.96L95.23 9.96Q94.01 6.84 91.44 6.84L91.44 6.84Q90.31 6.84 89.76 7.24Q89.21 7.63 89.21 8.23L89.21 8.23Q89.21 8.59 89.38 8.80Q89.54 9 89.64 9.10Q89.74 9.19 89.95 9.30Q90.17 9.41 90.31 9.47Q90.46 9.53 90.76 9.62Q91.06 9.72 91.20 9.74L91.20 9.74Q92.83 10.15 93.55 10.45Q94.27 10.75 94.92 11.18L94.92 11.18Q96.24 12.10 96.24 14.12Q96.24 16.15 95.04 17.20Q93.84 18.24 91.75 18.24L91.75 18.24Q90.26 18.24 88.87 17.54L88.87 17.54Q88.58 17.35 88.42 17.35L88.42 17.35Q87.89 17.35 87.38 18.24L87.38 18.24Z" transform="translate(36, 8.88)"></path></svg>